HIERARCHY
ROOT Hips
{
    OFFSET 0.000000 0.000000 0.000000
    CHANNELS 6 Xposition Yposition Zposition Zrotation Xrotation Yrotation
    JOINT Spine
    {
        OFFSET -0.000000 7.236184 0.000000
        CHANNELS 3 Zrotation Xrotation Yrotation
        JOINT Spine1
        {
            OFFSET -0.000000 20.420147 0.000000
            CHANNELS 3 Zrotation Xrotation Yrotation
            JOINT Neck
            {
                OFFSET -0.000000 20.336288 1.848754
                CHANNELS 3 Zrotation Xrotation Yrotation
                JOINT Head
                {
                    OFFSET -0.000000 12.354461 -1.764923
                    CHANNELS 3 Zrotation Xrotation Yrotation
                    End Site
                    {
                        OFFSET -0.000000 22.061537 0.000000
                    }
                }
            }
            JOINT LeftShoulder
            {
                OFFSET 3.573296 18.396038 -0.314103
                CHANNELS 3 Zrotation Xrotation Yrotation
                JOINT LeftArm
                {
                    OFFSET 10.880760 0.000000 0.000000
                    CHANNELS 3 Zrotation Xrotation Yrotation
                    JOINT LeftForeArm
                    {
                        OFFSET 27.185530 0.000000 0.000000
                        CHANNELS 3 Zrotation Xrotation Yrotation
                        JOINT LeftHand
                        {
                            OFFSET 27.825975 0.000000 0.000000
                            CHANNELS 3 Zrotation Xrotation Yrotation
                            End Site
                            {
                                OFFSET 13.236923 0.000000 0.000000
                            }
                        }
                    }
                }
            }
            JOINT RightShoulder
            {
                OFFSET -3.474926 18.396038 -0.314103
                CHANNELS 3 Zrotation Xrotation Yrotation
                JOINT RightArm
                {
                    OFFSET -10.880760 0.000000 0.000000
                    CHANNELS 3 Zrotation Xrotation Yrotation
                    JOINT RightForeArm
                    {
                        OFFSET -27.185530 0.000000 0.000000
                        CHANNELS 3 Zrotation Xrotation Yrotation
                        JOINT RightHand
                        {
                            OFFSET -27.825975 0.000000 0.000000
                            CHANNELS 3 Zrotation Xrotation Yrotation
                            End Site
                            {
                                OFFSET -13.236923 0.000000 0.000000
                            }
                        }
                    }
                }
            }
        }
    }
    JOINT LeftUpLeg
    {
        OFFSET 8.824615 0.000000 0.000000
        CHANNELS 3 Zrotation Xrotation Yrotation
        JOINT LeftLeg
        {
            OFFSET -0.000000 -35.111282 0.000000
            CHANNELS 3 Zrotation Xrotation Yrotation
            JOINT LeftFoot
            {
                OFFSET -0.000000 -42.324711 0.000000
                CHANNELS 3 Zrotation Xrotation Yrotation
                JOINT LeftToeBase
                {
                    OFFSET -0.000000 -5.735999 13.236923
                    CHANNELS 3 Zrotation Xrotation Yrotation
                    End Site
                    {
                        OFFSET -0.000000 0.000000 3.529846
                    }
                }
            }
        }
    }
    JOINT RightUpLeg
    {
        OFFSET -8.824615 0.000000 0.000000
        CHANNELS 3 Zrotation Xrotation Yrotation
        JOINT RightLeg
        {
            OFFSET -0.000000 -35.111282 0.000000
            CHANNELS 3 Zrotation Xrotation Yrotation
            JOINT RightFoot
            {
                OFFSET -0.000000 -42.324711 0.000000
                CHANNELS 3 Zrotation Xrotation Yrotation
                JOINT RightToeBase
                {
                    OFFSET -0.000000 -5.735999 13.236923
                    CHANNELS 3 Zrotation Xrotation Yrotation
                    End Site
                    {
                        OFFSET -0.000000 0.000000 3.529846
                    }
                }
            }
        }
    }
}
MOTION
Frames:    9
Frame Time:    0.008333
-3.457922    82.903000    96.882744    0.228050    -5.587265    -176.371429    -1.755186    -13.117153    -0.712148    0.372766    8.409832    -0.537875    4.752057    6.047887    0.682336    0.673887    -19.023132    0.465524    -2.146517    19.860022    0.329511    -41.971577    43.460670    -42.185719    2.413031    -2.767536    -13.462798    17.379519    -2.408542    0.487623    6.439898    20.140314    -5.897367    33.850277    48.682186    45.603123    -5.018472    -8.632757    17.481529    -15.278998    -7.492399    -2.830021    8.705944    -3.697110    -2.992537    -1.050101    7.146893    2.028892    -8.081844    -7.298291    -10.104722    -0.403802    -0.437386    0.447954    -3.769698    1.090165    -0.288176    2.613994    2.239702    8.972701    -0.610936    -6.023662    -19.337593    -2.869071    0.673088    3.100171    
-3.446408    82.902618    96.876701    0.226428    -5.585134    -176.360626    -1.735350    -13.124198    -0.709976    0.365197    8.432209    -0.537297    4.751238    6.041114    0.685062    0.669179    -19.019022    0.466526    -2.136719    19.850897    0.317689    -41.986805    43.412384    -42.212681    2.394432    -2.806550    -13.414112    17.351303    -2.447815    0.507998    6.414505    20.120049    -5.865338    33.808830    48.560543    45.607929    -5.049961    -8.628357    17.734795    -15.293338    -7.475223    -2.801929    8.707847    -3.704985    -2.998331    -1.044199    7.165928    2.028928    -8.082912    -7.298662    -10.109559    -0.406362    -0.445374    0.450801    -3.762211    1.094846    -0.297997    2.624104    2.167525    8.034175    -0.524431    -5.959540    -18.395744    -2.865482    0.669419    3.096311    
-3.434983    82.902214    96.870659    0.225094    -5.582430    -176.350021    -1.715264    -13.130604    -0.707668    0.357553    8.454149    -0.536733    4.750283    6.034563    0.687545    0.664754    -19.014994    0.467659    -2.126665    19.841379    0.305536    -42.000538    43.365490    -42.240402    2.375927    -2.845332    -13.364928    17.323126    -2.486816    0.528381    6.389041    20.099928    -5.833459    33.766636    48.439434    45.614109    -5.082293    -8.625072    17.986528    -15.307659    -7.458898    -2.774216    8.710155    -3.712025    -3.004194    -1.038504    7.184608    2.029018    -8.083846    -7.299088    -10.114258    -0.408897    -0.453594    0.453619    -3.754426    1.100113    -0.307654    2.632747    2.096114    7.108430    -0.440052    -5.895204    -17.466730    -2.861985    0.665946    3.092547    
-3.423756    82.901787    96.864677    0.223712    -5.579301    -176.339844    -1.695090    -13.136452    -0.705241    0.349449    8.475491    -0.536000    4.749399    6.028221    0.690007    0.660322    -19.010860    0.468540    -2.115865    19.831047    0.292519    -42.011509    43.320938    -42.269814    2.357456    -2.883840    -13.314453    17.295053    -2.525586    0.548953    6.363105    20.079258    -5.801210    33.724415    48.318707    45.621666    -5.116183    -8.622933    18.236589    -15.322729    -7.443343    -2.746960    8.712291    -3.718319    -3.010135    -1.032798    7.202786    2.029347    -8.084537    -7.299500    -10.118834    -0.411628    -0.461778    0.456656    -3.746830    1.105754    -0.317217    2.639880    2.027921    6.224212    -0.360617    -5.832931    -16.579248    -2.858559    0.662483    3.088858    
-3.412444    82.901329    96.858612    0.221920    -5.575734    -176.329895    -1.674445    -13.141896    -0.702560    0.340594    8.496629    -0.534960    4.748716    6.022423    0.692270    0.655318    -19.007025    0.469223    -2.103912    19.819178    0.277687    -42.018433    43.278164    -42.302761    2.338331    -2.923479    -13.260386    17.265650    -2.565463    0.570293    6.335722    20.057442    -5.767578    33.678925    48.194733    45.632946    -5.154226    -8.622974    18.493212    -15.338988    -7.428839    -2.719630    8.713975    -3.724041    -3.016652    -1.026915    7.220944    2.030402    -8.085011    -7.299880    -10.123523    -0.414691    -0.470439    0.460061    -3.739686    1.111751    -0.326984    2.645878    1.962884    5.375546    -0.285877    -5.772713    -15.727186    -2.855079    0.659067    3.085113    
-3.401450    82.900818    96.852646    0.219940    -5.571533    -176.320572    -1.653685    -13.146402    -0.699562    0.330923    8.516614    -0.533711    4.748003    6.016928    0.694304    0.650592    -19.002831    0.469619    -2.090644    19.805983    0.261236    -42.019714    43.239632    -42.339428    2.319303    -2.962815    -13.203773    17.235746    -2.605080    0.591908    6.307716    20.034933    -5.733447    33.631386    48.071575    45.648418    -5.196055    -8.625685    18.747549    -15.356291    -7.416127    -2.693421    8.715289    -3.728584    -3.023448    -1.021026    7.238276    2.031980    -8.085163    -7.300168    -10.128063    -0.417994    -0.479168    0.463732    -3.733085    1.118372    -0.336358    2.650635    1.904646    4.610737    -0.220101    -5.718346    -14.959202    -2.851692    0.655697    3.081467    
-3.390643    82.900269    96.846703    0.217634    -5.566576    -176.311844    -1.632567    -13.150064    -0.696315    0.320202    8.535751    -0.532064    4.747430    6.012193    0.695937    0.645703    -18.998783    0.469858    -2.075841    19.790909    0.242621    -42.014145    43.205349    -42.380894    2.300040    -3.002484    -13.143643    17.204231    -2.645038    0.613951    6.278479    20.011192    -5.698088    33.580738    47.947582    45.669216    -5.243523    -8.632018    19.003033    -15.374706    -7.405716    -2.668051    8.716134    -3.731825    -3.030680    -1.015009    7.254862    2.034335    -8.084893    -7.300290    -10.132668    -0.421761    -0.488355    0.467920    -3.727047    1.125693    -0.345570    2.654450    1.853153    3.927099    -0.162835    -5.669965    -14.272356    -2.848275    0.652394    3.077790    
-3.380124    82.899681    96.840843    0.215231    -5.560648    -176.303741    -1.611118    -13.152391    -0.692717    0.308611    8.553526    -0.530173    4.746659    6.007924    0.697341    0.641046    -18.994349    0.469724    -2.059529    19.773996    0.222000    -42.001118    43.176083    -42.427441    2.280765    -3.041933    -13.080415    17.171141    -2.684788    0.636306    6.248136    19.986719    -5.662086    33.526726    47.824333    45.696762    -5.297121    -8.642711    19.256279    -15.394117    -7.398351    -2.643919    8.716814    -3.733460    -3.038334    -1.009066    7.270506    2.037314    -8.084143    -7.300203    -10.137120    -0.425840    -0.498029    0.472454    -3.721325    1.133848    -0.354464    2.657427    1.809275    3.334867    -0.114772    -5.628590    -13.676965    -2.844932    0.649325    3.074189    
-3.369700    82.899078    96.834961    0.212250    -5.553896    -176.296066    -1.589196    -13.153883    -0.688858    0.295699    8.570500    -0.527914    4.745933    6.004089    0.698536    0.636104    -18.989260    0.469203    -2.041265    19.754742    0.198707    -41.979626    43.151318    -42.480667    2.261274    -3.082164    -13.012480    17.134844    -2.725349    0.659526    6.216007    19.960428    -5.624177    33.467304    47.699741    45.732281    -5.359698    -8.659414    19.513369    -15.414808    -7.394895    -2.620800    8.716660    -3.733783    -3.046554    -1.002734    7.285458    2.041337    -8.082989    -7.299664    -10.141973    -0.430408    -0.508183    0.477531    -3.716406    1.142839    -0.363133    2.660014    1.771979    2.820042    -0.074518    -5.593496    -13.159108    -2.841521    0.646445    3.070516    
